<svg width="43" height="29" viewBox="0 0 43 29" fill="none" xmlns="http://www.w3.org/2000/svg">
  <path d="M0 0H43V29H0V0Z" fill="#055E1C"/>
  <path d="M15.4152 17.3367C15.4152 18.3813 16.2324 19.228 17.2406 19.228H22.7171C22.7171 20.0984 23.3982 20.8041 24.2384 20.8041H26.0639C26.9041 20.8041 27.5852 20.0984 27.5852 19.228V17.3367H15.4152ZM27.737 8.19531V12.6084C27.737 13.3036 27.1911 13.8692 26.52 13.8692V15.7605C28.1977 15.7605 29.5624 14.3465 29.5624 12.6084V8.19531H27.737ZM14.6545 12.6084C14.6545 13.3037 14.1086 13.8693 13.4375 13.8693V15.7606C15.1152 15.7606 16.4799 14.3466 16.4799 12.6084V8.1954H14.6544V12.6084H14.6545Z" fill="white"/>
  <path d="M24.9989 8.19482H26.8244V12.6079H24.9989V8.19482ZM22.2606 10.7169C22.2606 10.8907 22.1242 11.0321 21.9564 11.0321C21.7886 11.0321 21.6521 10.8907 21.6521 10.7169V8.19508H19.8266V10.7169C19.8266 10.8907 19.6901 11.0321 19.5223 11.0321C19.3545 11.0321 19.2181 10.8907 19.2181 10.7169V8.19508H17.3926V10.7169C17.3926 11.9335 18.348 12.9234 19.5223 12.9234C19.9745 12.9234 20.394 12.7762 20.7393 12.5261C21.0844 12.7762 21.504 12.9234 21.9563 12.9234C22.0473 12.9234 22.1369 12.9168 22.225 12.9051C22.0957 13.4573 21.6157 13.869 21.0435 13.869V15.7603C22.7212 15.7603 24.086 14.3463 24.086 12.6082V8.19508H22.2605L22.2606 10.7169Z" fill="white"/>
  <path d="M17.3926 13.8687H20.1306V15.76H17.3926V13.8687Z" fill="white"/>
  </svg>
  