<svg width="43" height="28" viewBox="0 0 43 28" fill="none" xmlns="http://www.w3.org/2000/svg">
  <g clip-path="url(#clip0_105_5806)">
  <path d="M0 0H43V28.0003H0V0Z" fill="white"/>
  <path d="M24.1875 -0.000488281H18.8125V11.3745H0V16.6245H18.8125V27.9994H24.1875V16.6245H43V11.3745H24.1875V-0.000488281Z" fill="#D80027"/>
  <path d="M33.0718 18.8691L43 24.2566V18.8691H33.0718ZM26.1739 18.8691L43 27.9996V25.4177L30.932 18.8691H26.1739ZM38.5181 27.9996L26.1739 21.3005V27.9996H38.5181Z" fill="#0052B4"/>
  <path d="M26.1739 18.8691L43 27.9996V25.4177L30.932 18.8691H26.1739Z" fill="white"/>
  <path d="M26.1739 18.8691L43 27.9996V25.4177L30.932 18.8691H26.1739Z" fill="#D80027"/>
  <path d="M7.58723 18.8691L0 22.9863V18.8691H7.58723ZM16.8261 20.0302V27.9996H2.14085L16.8261 20.0302Z" fill="#0052B4"/>
  <path d="M12.068 18.8691L0 25.4177V27.9996L16.8261 18.8691H12.068Z" fill="#D80027"/>
  <path d="M9.92821 9.12993L0 3.74244V9.12993H9.92821ZM16.8261 9.12993L0 -0.000488281V2.58137L12.068 9.12993H16.8261ZM4.48191 -0.000488281L16.8261 6.69852V-0.000488281H4.48191Z" fill="#0052B4"/>
  <path d="M16.8261 9.12993L0 -0.000488281V2.58137L12.068 9.12993H16.8261Z" fill="white"/>
  <path d="M16.8261 9.12993L0 -0.000488281V2.58137L12.068 9.12993H16.8261Z" fill="#D80027"/>
  <path d="M35.4128 9.1305L43 5.01334V9.1305H35.4128ZM26.1739 7.96942V0H40.8591L26.1739 7.96942Z" fill="#0052B4"/>
  <path d="M30.932 9.12993L43 2.58137V-0.000488281L26.1739 9.12993H30.932Z" fill="#D80027"/>
  </g>
  <defs>
  <clipPath id="clip0_105_5806">
  <rect width="43" height="28" fill="white"/>
  </clipPath>
  </defs>
  </svg>
  