<svg width="26" height="28" viewBox="0 0 26 28" fill="none" xmlns="http://www.w3.org/2000/svg">
  <path d="M22.1766 13.2351V6.35275L18.8668 7.97393C18.9766 8.43275 19.0394 8.90687 19.0394 9.41158C19.0394 12.7916 16.2315 15.5292 12.7648 15.5292C9.29817 15.5292 6.49033 12.7916 6.49033 9.41158C6.49033 8.90687 6.55307 8.43275 6.66288 7.97393L1.78445 5.58805L12.7648 0.235107L23.7452 5.58805V13.2351H22.1766ZM12.7648 10.941L9.62759 9.41158C9.62759 11.0939 11.0393 12.4704 12.7648 12.4704C14.4903 12.4704 15.9021 11.0939 15.9021 9.41158L12.7648 10.941ZM17.0786 5.4657L13.0158 3.44687L8.79621 5.54217L12.8746 7.56099L17.0786 5.4657ZM12.7648 17.0586C16.9531 17.0586 25.3139 19.0928 25.3139 23.1763V27.7645H0.21582V23.1763C0.21582 19.0928 8.5766 17.0586 12.7648 17.0586ZM12.7648 19.9645C8.05896 19.9645 3.19621 22.1975 3.19621 23.1763V24.8586H22.3335V23.1763C22.3335 22.1975 17.4237 19.9645 12.7648 19.9645Z" fill="white"/>
  </svg>
  