<svg width="27" height="28" viewBox="0 0 27 28" fill="none" xmlns="http://www.w3.org/2000/svg">
  <path d="M11.0983 3.07825H15.4904C16.0729 3.07825 16.6315 3.30962 17.0433 3.72146C17.4551 4.13331 17.6865 4.69189 17.6865 5.27433V7.4704H22.0787C22.6611 7.4704 23.2197 7.70178 23.6315 8.11362C24.0434 8.52547 24.2748 9.08405 24.2748 9.66648V21.7449C24.2748 22.3274 24.0434 22.8859 23.6315 23.2978C23.2197 23.7096 22.6611 23.941 22.0787 23.941H4.51004C3.29122 23.941 2.31396 22.9528 2.31396 21.7449V9.66648C2.31396 8.44766 3.29122 7.4704 4.51004 7.4704H8.9022V5.27433C8.9022 4.0555 9.87946 3.07825 11.0983 3.07825ZM15.4904 7.4704V5.27433H11.0983V7.4704H15.4904Z" fill="white"/>
  </svg>
  